# xmcd
#
# Track frame offsets:
#	183
#	14583
#	28358
#
# Disc length: 582 seconds
#
# Revision: 0
# Processed by: cddbd v1.5.2PL0 Copyright (c) Steve Scherf et al.
# Submitted via: audiograbber 1.83.01
#
DISCID=22024403
DTITLE=Truck Stop - Du bist immer auf Achse (Single)
DYEAR=1992
DGENRE=Country
TTITLE0=Du bist immer auf Achse
TTITLE1=Mitten aus dem Leben
TTITLE2=Henry's Farm
EXTD=
EXTT0=
EXTT1=
EXTT2=
PLAYORDER=
